<svg xmlns="http://www.w3.org/2000/svg" width="197" height="40" viewBox="0 0 197 40" fill="none"><path d="M61.8443 8.95996C61.897 9.60234 61.7793 10.2473 61.503 10.8296C61.3497 10.9812 61.1637 11.0956 60.9593 11.1642C60.7549 11.2328 60.5375 11.2537 60.3238 11.2252C60.1377 11.2393 59.9508 11.2149 59.7746 11.1535C59.5984 11.0921 59.4368 10.995 59.2998 10.8683C59.054 10.5709 58.9318 10.1905 58.9584 9.80555C58.9584 9.40215 58.9584 9.09184 58.9584 8.89014L59.1524 2.44351C59.1443 2.05877 59.2861 1.68596 59.548 1.40398C59.858 1.16034 60.2491 1.04384 60.6419 1.07816H77.6001C77.9929 1.04384 78.384 1.16034 78.694 1.40398C78.8227 1.54334 78.922 1.70723 78.986 1.88583C79.05 2.06444 79.0773 2.2541 79.0663 2.44351L79.2758 8.89014C79.2758 9.12287 79.2758 9.34008 79.2758 9.54954C79.2758 9.759 79.2758 9.85985 79.2758 9.84433C79.2925 10.0336 79.2687 10.2242 79.2058 10.4035C79.1429 10.5828 79.0425 10.7465 78.9112 10.8839C78.5975 11.1388 78.1967 11.2613 77.7941 11.2252C77.597 11.2491 77.3971 11.2256 77.211 11.1568C77.0248 11.088 76.8577 10.9758 76.7235 10.8296C76.4591 10.2436 76.3445 9.60117 76.3899 8.95996L76.196 3.88644H70.7036V21.4886H74.466C74.8903 21.4518 75.3139 21.5673 75.6607 21.8144C75.7947 21.9469 75.8977 22.1075 75.9621 22.2846C76.0265 22.4617 76.0507 22.6508 76.0331 22.8384C76.0461 23.0268 76.0213 23.2158 75.96 23.3944C75.8987 23.5729 75.8022 23.7374 75.6762 23.878C75.5413 24.0058 75.3813 24.1042 75.2064 24.167C75.0315 24.2297 74.8454 24.2555 74.66 24.2426H63.7217C63.5363 24.2546 63.3505 24.2284 63.1757 24.1657C63.0009 24.1029 62.8408 24.005 62.7054 23.878C62.4568 23.5909 62.3313 23.2174 62.3563 22.8384C62.3373 22.6477 62.3616 22.4552 62.4274 22.2752C62.4932 22.0952 62.5989 21.9324 62.7364 21.7989C63.1234 21.5583 63.5779 21.4494 64.032 21.4886H67.6858V3.90195H62.0848L61.8443 8.95996Z" fill="#231F20"></path><path d="M97.5219 21.4889C98.1745 21.4242 98.8329 21.5229 99.438 21.7759C99.5924 21.9031 99.7124 22.0671 99.787 22.2528C99.8615 22.4385 99.8882 22.64 99.8647 22.8387C99.8879 23.0431 99.8613 23.2502 99.7869 23.442C99.7126 23.6339 99.5929 23.8049 99.438 23.9403C98.8361 24.2048 98.176 24.309 97.5219 24.2428H84.7527C84.5596 24.2566 84.3656 24.2321 84.1819 24.1709C83.9982 24.1097 83.8284 24.0129 83.6821 23.886C83.5501 23.7473 83.4487 23.5824 83.3846 23.4019C83.3204 23.2215 83.2949 23.0296 83.3098 22.8387C83.284 22.6398 83.3097 22.4377 83.3844 22.2516C83.4591 22.0655 83.5803 21.9017 83.7365 21.7759C84.3499 21.5237 85.0157 21.4252 85.6759 21.4889H90.0977V3.9022H85.6759C85.0218 3.96527 84.3625 3.86117 83.7597 3.59965C83.5973 3.46936 83.4708 3.29985 83.3921 3.10712C83.3134 2.91439 83.2851 2.70478 83.3098 2.49806C83.2937 2.30469 83.3185 2.1101 83.3827 1.92698C83.4469 1.74385 83.5489 1.5763 83.6821 1.43526C83.9964 1.18715 84.3921 1.06541 84.7915 1.09392H98.4373C98.8236 1.06611 99.2054 1.19151 99.5001 1.44302C99.6293 1.58486 99.7284 1.75157 99.7911 1.93297C99.8538 2.11438 99.8788 2.30665 99.8647 2.49806C99.8888 2.704 99.861 2.91271 99.7838 3.10514C99.7066 3.29757 99.5823 3.46758 99.4225 3.59965C98.8244 3.85857 98.1708 3.96262 97.5219 3.9022H93.1077V21.4889H97.5219Z" fill="#231F20"></path><path d="M105.668 24.2428H104.752C104.56 24.2577 104.367 24.2337 104.184 24.1724C104.002 24.1111 103.833 24.0137 103.689 23.8859C103.56 23.7455 103.461 23.5802 103.399 23.4C103.336 23.2199 103.311 23.0289 103.325 22.8386C103.3 22.6406 103.326 22.4396 103.399 22.2539C103.472 22.0683 103.591 21.9039 103.744 21.7758C104.351 21.5231 105.012 21.4245 105.668 21.4888H106.917V3.90215H105.668C105.019 3.96531 104.364 3.86115 103.767 3.5996C103.607 3.46753 103.483 3.29752 103.406 3.10509C103.328 2.91266 103.301 2.70395 103.325 2.49801C103.31 2.30533 103.334 2.11159 103.397 1.92878C103.459 1.74596 103.559 1.57797 103.689 1.43521C103.999 1.18412 104.393 1.06189 104.791 1.09387H121.788C121.976 1.08027 122.164 1.10951 122.339 1.1794C122.513 1.24928 122.67 1.35798 122.796 1.49727C123.044 1.82982 123.165 2.23956 123.138 2.65316V7.26123C123.182 7.7482 123.079 8.23719 122.843 8.66537C122.711 8.80949 122.546 8.91991 122.363 8.98738C122.179 9.05486 121.982 9.07744 121.788 9.05325C121.583 9.07786 121.376 9.05182 121.184 8.97742C120.992 8.90301 120.821 8.78253 120.686 8.62658C120.422 8.01909 120.318 7.35408 120.384 6.69492V3.90215H110.004V10.5117H115.116V9.44889C115.073 8.94377 115.169 8.4364 115.396 7.98269C115.513 7.83792 115.664 7.72455 115.836 7.65279C116.008 7.58102 116.195 7.5531 116.381 7.57153C116.565 7.55207 116.751 7.58291 116.919 7.66077C117.087 7.73864 117.231 7.86062 117.335 8.01372C117.557 8.61589 117.644 9.25931 117.591 9.89884V13.5294C117.653 14.1654 117.56 14.807 117.32 15.399C117.207 15.5471 117.057 15.6631 116.886 15.7352C116.714 15.8074 116.527 15.8332 116.342 15.8102C116.154 15.8314 115.964 15.799 115.794 15.7166C115.624 15.6342 115.48 15.5053 115.38 15.3447C115.158 14.7667 115.068 14.1466 115.116 13.5294V12.839H110.004V21.4888H120.353V18.3314C120.287 17.6723 120.391 17.0073 120.655 16.3998C120.789 16.2424 120.96 16.1205 121.152 16.0447C121.344 15.9689 121.552 15.9417 121.757 15.9653C121.951 15.9437 122.148 15.969 122.33 16.0392C122.512 16.1094 122.675 16.2225 122.804 16.3687C123.06 16.8432 123.166 17.3844 123.107 17.9203V22.8386C123.133 23.2272 123.008 23.611 122.758 23.9092C122.626 24.0376 122.469 24.1371 122.297 24.2012C122.124 24.2653 121.94 24.2927 121.757 24.2816L105.668 24.2428Z" fill="#231F20"></path><path d="M132.703 21.489H135.139C135.66 21.4497 136.181 21.5572 136.644 21.7994C136.801 21.9204 136.924 22.0793 137.003 22.2611C137.082 22.4429 137.113 22.6417 137.094 22.8389C137.118 23.0427 137.093 23.2493 137.02 23.4411C136.947 23.6329 136.828 23.8043 136.675 23.9405C136.096 24.2009 135.46 24.3052 134.829 24.243H129.034C128.843 24.2586 128.651 24.235 128.469 24.1737C128.288 24.1123 128.121 24.0145 127.979 23.8862C127.853 23.7438 127.758 23.5777 127.698 23.3978C127.638 23.218 127.615 23.0279 127.629 22.8389C127.605 22.643 127.628 22.444 127.697 22.259C127.766 22.0739 127.878 21.9083 128.025 21.7761C128.505 21.5373 129.043 21.4379 129.577 21.489H129.949V3.90238H129.46C128.71 3.96007 127.955 3.8542 127.249 3.59208C127.057 3.48522 126.9 3.32512 126.797 3.13106C126.694 2.937 126.649 2.71725 126.667 2.49824C126.651 2.29659 126.689 2.09425 126.776 1.9117C126.863 1.72916 126.997 1.57289 127.164 1.45872C127.662 1.20383 128.22 1.09109 128.778 1.13289C129.297 1.13289 129.685 1.13289 129.949 1.13289H131.788C132.217 1.10114 132.648 1.17297 133.044 1.34235C133.405 1.61686 133.694 1.97319 133.89 2.38188L143.727 19.3634V3.90238H141.586C141.046 3.95025 140.504 3.8311 140.034 3.56105C139.871 3.43829 139.742 3.27666 139.658 3.09098C139.574 2.90529 139.538 2.70149 139.553 2.49824C139.53 2.29525 139.556 2.0898 139.627 1.89845C139.699 1.7071 139.814 1.53521 139.964 1.39665C140.497 1.13988 141.09 1.03519 141.679 1.09411H147.287C147.475 1.07868 147.664 1.10168 147.843 1.16169C148.022 1.22171 148.186 1.31749 148.327 1.4432C148.451 1.58786 148.544 1.75555 148.603 1.93662C148.662 2.11769 148.684 2.30856 148.668 2.49824C148.691 2.70075 148.664 2.90564 148.591 3.09589C148.518 3.28614 148.401 3.45625 148.249 3.59208C147.775 3.84861 147.234 3.95671 146.698 3.90238H146.457V23.5603C146.472 23.7004 146.456 23.8419 146.412 23.9755C146.368 24.1092 146.296 24.2321 146.201 24.3361C145.819 24.5158 145.396 24.5882 144.976 24.5456C144.579 24.5765 144.181 24.5398 143.796 24.437C143.473 24.1593 143.209 23.8189 143.021 23.4362L132.703 5.54701V21.489Z" fill="#231F20"></path><path d="M157.333 21.4889C157.752 21.5277 158.164 21.5587 158.575 21.5742C158.986 21.5897 159.35 21.5742 159.769 21.5742C162.971 21.5742 165.316 20.8605 166.806 19.4331C168.295 17.9979 169.048 15.7405 169.048 12.6529C169.048 9.56534 168.272 7.30786 166.798 5.89596C165.324 4.48406 162.919 3.77812 159.614 3.77812H158.226C157.9 3.77812 157.605 3.77811 157.333 3.85569V21.4889ZM157.333 24.2429H153.369C153.174 24.2583 152.977 24.2347 152.79 24.1734C152.604 24.1121 152.432 24.0145 152.283 23.886C152.156 23.745 152.058 23.5793 151.997 23.3992C151.935 23.2191 151.911 23.0284 151.926 22.8387C151.903 22.6419 151.929 22.4425 152.003 22.2583C152.076 22.0741 152.193 21.911 152.345 21.7837C152.838 21.5418 153.389 21.4398 153.936 21.4889H154.285V3.90224H153.974C153.42 3.9545 152.863 3.84681 152.369 3.59193C152.21 3.46016 152.087 3.29135 152.01 3.10052C151.933 2.90969 151.904 2.70274 151.926 2.4981C151.91 2.30597 151.933 2.11255 151.995 1.92976C152.056 1.74697 152.154 1.57869 152.283 1.4353C152.602 1.18413 153.004 1.06225 153.408 1.09396H161.647C163.086 1.02681 164.524 1.26904 165.862 1.80432C167.2 2.3396 168.408 3.1555 169.404 4.19703C171.328 6.26575 172.29 9.08437 172.29 12.6529C172.308 14.304 172.024 15.9446 171.452 17.4937C170.918 18.9341 170.1 20.2529 169.048 21.3725C168.059 22.3952 166.833 23.1574 165.479 23.5912C163.728 24.0983 161.91 24.3312 160.087 24.2817H158.769C158.148 24.2584 157.667 24.2429 157.333 24.2429Z" fill="#231F20"></path><path d="M180.8 14.251H188.783L184.586 3.90228L180.8 14.251ZM181.793 3.90228H178.946C178.372 3.94781 177.796 3.83794 177.278 3.58422C177.112 3.45929 176.981 3.2939 176.897 3.10379C176.812 2.91367 176.778 2.70517 176.798 2.49814C176.774 2.29439 176.8 2.08797 176.873 1.89627C176.946 1.70456 177.063 1.53317 177.216 1.39655C177.958 1.11406 178.755 1.01041 179.544 1.094H185.106C185.607 1.04348 186.112 1.14341 186.557 1.38104C186.877 1.66006 187.118 2.01864 187.255 2.42057L194.826 21.4889H195.152C195.652 21.4419 196.154 21.5445 196.595 21.7837C196.741 21.9151 196.852 22.0795 196.921 22.2631C196.99 22.4467 197.014 22.6441 196.991 22.8388C197.014 23.0385 196.993 23.2409 196.928 23.4315C196.864 23.622 196.758 23.7958 196.618 23.9404C196.198 24.1835 195.713 24.2893 195.23 24.2429H189.923C189.274 24.3078 188.62 24.2036 188.023 23.9404C187.869 23.8042 187.751 23.6328 187.678 23.441C187.605 23.2492 187.58 23.0426 187.604 22.8388C187.582 22.6394 187.613 22.4379 187.693 22.2541C187.774 22.0704 187.901 21.9109 188.062 21.7915C188.599 21.5414 189.193 21.4371 189.784 21.4889H191.607L189.706 16.8343H179.823L178.147 21.4889H180.04C180.641 21.437 181.245 21.5413 181.793 21.7915C181.958 21.9085 182.088 22.0672 182.172 22.2512C182.255 22.4352 182.288 22.6379 182.267 22.8388C182.291 23.0426 182.265 23.2492 182.192 23.441C182.12 23.6328 182.001 23.8042 181.848 23.9404C181.269 24.2008 180.633 24.3051 180.001 24.2429H174.866C174.295 24.2974 173.72 24.1926 173.206 23.9404C173.056 23.8018 172.941 23.6297 172.871 23.4382C172.801 23.2467 172.777 23.0412 172.802 22.8388C172.779 22.6434 172.803 22.4452 172.873 22.2613C172.944 22.0775 173.058 21.9135 173.206 21.7837C173.687 21.548 174.223 21.4462 174.757 21.4889H175.13L181.793 3.90228Z" fill="#231F20"></path><path d="M1.66016 15.779V38.3228H3.82455V15.0498C3.56876 15.3011 3.2656 15.4991 2.93266 15.6323C2.59973 15.7654 2.24366 15.8311 1.88513 15.8256H1.66016" fill="#231F20"></path><path d="M4.56152 38.323H4.82529V15.6007C4.73536 15.5667 4.64731 15.5278 4.56152 15.4844V38.323Z" fill="#231F20"></path><path d="M5.39163 15.7401V38.3227H6.1674V15.7712H5.86485C5.69568 15.7714 5.52686 15.7558 5.3606 15.7246" fill="#231F20"></path><path d="M7.57153 15.2907V38.3233H8.92913V15.6786C8.53461 15.5674 8.1796 15.3469 7.90511 15.0425C7.80057 15.1338 7.68903 15.2168 7.57153 15.2907Z" fill="#231F20"></path><path d="M10.1936 15.74V38.3226H12.0787V15.3599C11.9199 15.2618 11.7717 15.1474 11.6365 15.0186C11.2386 15.3981 10.736 15.6494 10.1936 15.74Z" fill="#231F20"></path><path d="M12.707 38.3227H13.2501V15.7633C13.066 15.7403 12.8844 15.7013 12.707 15.647V38.3227Z" fill="#231F20"></path><path d="M14.2275 38.3228H14.8482V15.5229C14.6567 15.611 14.4565 15.6786 14.2508 15.7247L14.2275 38.3228Z" fill="#231F20"></path><path d="M15.6626 38.3231H17.0124V15.725C16.5181 15.6239 16.0553 15.4057 15.6626 15.0889V38.3231Z" fill="#231F20"></path><path d="M18.3237 38.3233H19.0995V15.4614C18.851 15.5747 18.5909 15.6606 18.3237 15.7174V38.3233Z" fill="#231F20"></path><path d="M20.0071 38.3231H21.3569V15.7327C20.8549 15.646 20.3872 15.4203 20.0071 15.0811V38.3231Z" fill="#231F20"></path><path d="M22.3733 38.3233H23.7309V15.252C23.3168 15.5079 22.8548 15.6769 22.3733 15.7484V38.3233Z" fill="#231F20"></path><path d="M24.3745 38.3229H24.9331V15.5696C24.7399 15.4922 24.5575 15.3906 24.39 15.2671L24.3745 38.3229Z" fill="#231F20"></path><path d="M25.6392 15.7637V38.323H26.1822V15.7792H26.0193C25.8927 15.7871 25.7657 15.7871 25.6392 15.7792" fill="#231F20"></path><path d="M26.989 15.6162V38.3229H28.8819V15.5231C28.5568 15.3941 28.2534 15.2162 27.982 14.9956C27.7045 15.2778 27.3643 15.4904 26.989 15.6162Z" fill="#231F20"></path><path d="M30.1929 15.7868V38.3228H30.7359V15.7402C30.5617 15.7708 30.3852 15.7863 30.2084 15.7868" fill="#231F20"></path><path d="M31.853 15.3446V38.3228H33.2106V15.5075C32.9026 15.3821 32.619 15.2035 32.3728 14.98C32.217 15.1247 32.0421 15.2474 31.853 15.3446Z" fill="#231F20"></path><path d="M36.3915 15.0189C36.2616 15.155 36.1157 15.2748 35.957 15.3758V38.323H38.6567V15.7792H38.4628C37.7013 15.7795 36.9654 15.5039 36.3915 15.0034" fill="#231F20"></path><path d="M40.4487 38.3233H41.4262V15.6709C41.0626 15.5643 40.7283 15.3759 40.4487 15.1201V38.3233Z" fill="#231F20"></path><path d="M42.1475 15.7867V38.3228H43.2335V15.5928C42.9022 15.7218 42.5496 15.7876 42.194 15.7867H42.1475Z" fill="#231F20"></path><path d="M43.792 38.3228H44.0635V15.0498L43.792 15.2748V38.3228Z" fill="#231F20"></path><path d="M39.5564 38.3227H39.8202V15.4375L39.5564 15.5694V38.3227Z" fill="#231F20"></path><path d="M34.6614 38.3229H34.9329V15.7559H34.6614V38.3229Z" fill="#231F20"></path><path d="M44.9868 38.3228H46.135V15.8255C45.7416 15.8156 45.353 15.7368 44.9868 15.5928V38.3228Z" fill="#231F20"></path><path d="M46.9883 38.3232H47.764V15.314C47.5252 15.4736 47.2637 15.5966 46.9883 15.6786V38.3232Z" fill="#231F20"></path><path d="M48.7026 38.3232H48.8811V15.5311L48.7026 15.4458V38.3232Z" fill="#231F20"></path><path d="M49.6958 15.7636V38.3229H50.4716V15.7559C50.3243 15.7638 50.1767 15.7638 50.0294 15.7559C49.908 15.7638 49.7862 15.7638 49.6648 15.7559" fill="#231F20"></path><path d="M25.9882 11.7839C24.9464 11.7839 23.928 11.475 23.0618 10.8962C22.1955 10.3174 21.5204 9.49473 21.1217 8.53222C20.723 7.56972 20.6187 6.51061 20.822 5.48882C21.0252 4.46703 21.5269 3.52846 22.2636 2.79179C23.0002 2.05512 23.9388 1.55344 24.9606 1.3502C25.9824 1.14695 27.0415 1.25127 28.004 1.64995C28.9665 2.04863 29.7892 2.72377 30.368 3.59C30.9468 4.45623 31.2557 5.47464 31.2557 6.51645C31.2557 7.91347 30.7007 9.25327 29.7129 10.2411C28.725 11.229 27.3852 11.7839 25.9882 11.7839ZM48.3303 0H3.64611L0 11.2409V14.0104C0.173372 14.3714 0.445226 14.6761 0.784238 14.8894C1.12325 15.1027 1.51562 15.2159 1.91615 15.2159C2.31667 15.2159 2.70905 15.1027 3.04806 14.8894C3.38707 14.6761 3.65892 14.3714 3.8323 14.0104C4.02239 14.39 4.3185 14.7064 4.68475 14.9212C5.051 15.136 5.47169 15.24 5.89583 15.2206C6.31809 15.2409 6.73706 15.1371 7.10102 14.9221C7.46497 14.707 7.75798 14.3901 7.94386 14.0104C8.0582 14.3747 8.2899 14.6911 8.60283 14.91C8.91576 15.1289 9.29233 15.2381 9.67383 15.2206C10.0849 15.2403 10.4922 15.1353 10.8425 14.9193C11.1928 14.7033 11.4696 14.3865 11.6365 14.0104C11.8079 14.3864 12.0879 14.7026 12.4404 14.9183C12.7929 15.1339 13.2019 15.2392 13.6147 15.2206C14.0207 15.24 14.4229 15.1343 14.7669 14.9179C15.111 14.7015 15.3803 14.3847 15.5386 14.0104C15.7375 14.3913 16.041 14.7075 16.4134 14.9218C16.7858 15.1362 17.2117 15.2398 17.641 15.2206C18.5564 15.2206 19.7045 14.7086 19.9683 14.0104C20.1357 14.3878 20.4137 14.7055 20.7655 14.9216C21.1173 15.1377 21.5264 15.2419 21.9387 15.2206C22.3786 15.2409 22.8154 15.1384 23.2003 14.9247C23.5853 14.711 23.9033 14.3944 24.1186 14.0104C24.2778 14.3841 24.5474 14.7002 24.8912 14.9165C25.2351 15.1328 25.6367 15.2388 26.0425 15.2206C26.4478 15.2417 26.8498 15.1367 27.1929 14.92C27.5361 14.7032 27.8036 14.3855 27.9587 14.0104C28.1992 14.7086 29.3163 15.2206 30.2317 15.2206C30.6711 15.2449 31.1084 15.1441 31.4929 14.9299C31.8774 14.7157 32.1932 14.3968 32.4038 14.0104C32.6121 14.3919 32.923 14.7075 33.3015 14.9214C33.6799 15.1353 34.1106 15.2389 34.5449 15.2206C34.9392 15.24 35.3294 15.1331 35.6586 14.9154C35.9879 14.6978 36.2392 14.3807 36.3758 14.0104C36.576 14.3919 36.8808 14.7084 37.2546 14.9227C37.6283 15.1371 38.0555 15.2404 38.4858 15.2206C38.8879 15.2402 39.2862 15.1343 39.6254 14.9175C39.9645 14.7006 40.2278 14.3836 40.3787 14.0104C40.5178 14.3806 40.7707 14.6973 41.101 14.9147C41.4314 15.1322 41.8222 15.2393 42.2173 15.2206C42.6194 15.2402 43.0176 15.1343 43.3568 14.9175C43.696 14.7006 43.9593 14.3836 44.1102 14.0104C44.3055 14.3925 44.6071 14.71 44.9788 14.9247C45.3504 15.1395 45.7761 15.2422 46.2047 15.2206C46.6119 15.2382 47.0157 15.1405 47.3698 14.9388C47.7239 14.737 48.0138 14.4394 48.2062 14.0802C48.3893 14.4298 48.666 14.7216 49.0055 14.9229C49.345 15.1241 49.7338 15.2268 50.1284 15.2196C50.523 15.2123 50.9078 15.0954 51.2397 14.8818C51.5715 14.6682 51.8374 14.3665 52.0075 14.0104V11.2409L48.3303 0Z" fill="#231F20"></path><path d="M28.7188 9.23937C28.3642 9.60621 27.9384 9.89662 27.4675 10.0927C26.9965 10.2889 26.4904 10.3865 25.9803 10.3798C25.2236 10.3677 24.4869 10.1345 23.8611 9.70901C23.2352 9.28347 22.7475 8.68414 22.4581 7.98486C22.1687 7.28558 22.0901 6.5169 22.2321 5.77353C22.3741 5.03015 22.7305 4.34457 23.2574 3.80124C23.5908 3.35665 24.0159 2.98891 24.5038 2.72291C24.9917 2.4569 25.5311 2.29886 26.0855 2.25946C26.6398 2.22007 27.1961 2.30024 27.7168 2.49457C28.2374 2.68889 28.7102 2.99283 29.1032 3.38579C29.4961 3.77875 29.8001 4.25156 29.9944 4.77221C30.1887 5.29285 30.2689 5.84918 30.2295 6.40351C30.1901 6.95784 30.0321 7.49723 29.7661 7.98517C29.5001 8.4731 29.1323 8.89817 28.6877 9.23161L28.7188 9.23937ZM25.9493 1.86182C25.0315 1.86567 24.1354 2.14074 23.3735 2.65246C22.6117 3.16417 22.0181 3.88969 21.6674 4.7378C21.3167 5.58591 21.2246 6.51877 21.4026 7.4191C21.5806 8.31943 22.0208 9.14705 22.6678 9.79792C23.0872 10.2792 23.6011 10.669 24.1775 10.9432C24.754 11.2174 25.3807 11.3701 26.0187 11.3917C26.6566 11.4134 27.2923 11.3037 27.886 11.0693C28.4798 10.8349 29.019 10.4808 29.4701 10.0292C29.9212 9.57754 30.2746 9.03793 30.5083 8.44391C30.742 7.84988 30.851 7.21413 30.8286 6.57618C30.8061 5.93822 30.6527 5.31171 30.3778 4.73557C30.1029 4.15944 29.7125 3.646 29.2308 3.22717C28.809 2.79281 28.3034 2.44853 27.7447 2.21518C27.186 1.98183 26.5858 1.86426 25.9803 1.86958L25.9493 1.86182Z" fill="#231F20"></path><path d="M26.4847 5.97316C26.29 6.08653 26.0654 6.13795 25.8408 6.12056H25.4606V4.93363H25.8485C26.0701 4.92274 26.2904 4.97378 26.4847 5.08103C26.5542 5.13089 26.61 5.19765 26.6466 5.27501C26.6833 5.35237 26.6996 5.43779 26.6941 5.52321C26.6991 5.61241 26.681 5.70139 26.6416 5.78156C26.6022 5.86173 26.5428 5.93039 26.4691 5.98092L26.4847 5.97316ZM27.9586 7.99016C27.8353 7.92307 27.6951 7.89342 27.5552 7.90482L26.8803 6.88081L26.7872 6.74893L26.7174 6.67911C26.9548 6.59993 27.1629 6.45128 27.3147 6.25244C27.4904 5.98918 27.563 5.67045 27.5187 5.35708C27.4743 5.04371 27.3161 4.75765 27.0742 4.5535C26.6424 4.31072 26.1487 4.20012 25.6546 4.23544H24.4134C24.3225 4.22789 24.2318 4.25261 24.1574 4.30526C24.1245 4.34043 24.0993 4.38202 24.0832 4.42741C24.0672 4.4728 24.0608 4.52101 24.0643 4.56902C24.0602 4.61773 24.0672 4.66673 24.0846 4.71239C24.1021 4.75805 24.1296 4.7992 24.1651 4.83278C24.2536 4.89431 24.3601 4.92436 24.4677 4.91812H24.6926V7.88155H24.4521C24.3456 7.87386 24.2402 7.90716 24.1574 7.97464C24.1235 8.01072 24.0977 8.05358 24.0816 8.10039C24.0656 8.1472 24.0597 8.19689 24.0643 8.24616C24.0617 8.29409 24.0685 8.34206 24.0845 8.38732C24.1005 8.43258 24.1252 8.47425 24.1574 8.50992C24.2314 8.57733 24.3287 8.61347 24.4289 8.61077H25.608C25.733 8.61994 25.8576 8.59013 25.9649 8.52544C26.0054 8.49176 26.0372 8.44876 26.0575 8.40012C26.0777 8.35148 26.0859 8.29865 26.0813 8.24616C26.0853 8.19487 26.0768 8.14336 26.0565 8.09607C26.0362 8.04878 26.0048 8.00711 25.9649 7.97464C25.8647 7.90638 25.7445 7.87361 25.6236 7.88155H25.4606V6.80323H25.577C25.6813 6.794 25.7856 6.82144 25.8718 6.88081C25.9929 6.99198 26.0974 7.12 26.1821 7.26094L26.857 8.28495C26.9171 8.38687 26.993 8.47853 27.082 8.55647C27.156 8.60389 27.2424 8.62819 27.3302 8.62629H27.7259C27.8236 8.6286 27.9184 8.59238 27.9897 8.52544C28.0218 8.48976 28.0465 8.4481 28.0625 8.40284C28.0785 8.35757 28.0854 8.3096 28.0827 8.26167C28.0867 8.20925 28.0783 8.15662 28.058 8.10809C28.0378 8.05955 28.0064 8.01649 27.9664 7.9824L27.9586 7.99016Z" fill="#231F20"></path><path d="M61.0762 37.9739H61.5572C61.7573 37.9583 61.958 37.9957 62.139 38.0825C62.1981 38.1255 62.245 38.1831 62.2749 38.2498C62.3049 38.3165 62.3169 38.3899 62.3097 38.4626C62.3187 38.5356 62.31 38.6096 62.2843 38.6785C62.2587 38.7473 62.2168 38.809 62.1623 38.8583C61.9921 38.9526 61.7974 38.9932 61.6037 38.9746H59.2144C59.1466 38.9788 59.0787 38.9693 59.0147 38.9467C58.9507 38.924 58.892 38.8887 58.842 38.8427C58.7972 38.7907 58.7632 38.7303 58.7419 38.6651C58.7206 38.5999 58.7124 38.531 58.7179 38.4626C58.711 38.3928 58.72 38.3224 58.7442 38.2566C58.7684 38.1908 58.8071 38.1312 58.8575 38.0825C58.9974 37.9982 59.1602 37.9602 59.323 37.9739H59.9746V31.504H59.5635C59.3286 31.5232 59.0925 31.4887 58.873 31.4031C58.8161 31.3589 58.7718 31.3005 58.7446 31.2338C58.7174 31.1671 58.7082 31.0944 58.7179 31.023C58.7123 30.957 58.7205 30.8905 58.7418 30.8277C58.7632 30.765 58.7973 30.7073 58.842 30.6584C58.9459 30.572 59.0797 30.5302 59.2144 30.542H62.2166C62.7589 30.5283 63.3014 30.5621 63.8379 30.6429C64.1618 30.6982 64.4708 30.8196 64.7456 30.9997C65.0741 31.2084 65.3417 31.5001 65.5214 31.8453C65.7009 32.193 65.794 32.5789 65.7929 32.9702C65.8043 33.4845 65.6246 33.9848 65.2886 34.3743C64.9175 34.7748 64.4283 35.0465 63.8922 35.1501C64.0128 35.2195 64.1247 35.3028 64.2258 35.3983C64.3264 35.5058 64.4197 35.6198 64.5051 35.7397L65.9325 37.9351H66.1652C66.3556 37.9148 66.5476 37.9526 66.716 38.0437C66.7653 38.0956 66.801 38.1589 66.82 38.2279C66.8389 38.2969 66.8405 38.3696 66.8246 38.4393C66.8301 38.5078 66.8219 38.5766 66.8006 38.6418C66.7793 38.7071 66.7453 38.7674 66.7005 38.8195C66.6525 38.866 66.5952 38.9017 66.5323 38.9245C66.4695 38.9472 66.4025 38.9564 66.3359 38.9514H65.5601C65.3352 38.9514 65.1024 38.7807 64.8775 38.4393L64.8154 38.3695L63.45 36.2982C63.2633 36.0041 63.0301 35.7421 62.7596 35.5225C62.5429 35.3902 62.2918 35.3254 62.0382 35.3363H61.0917L61.0762 37.9739ZM61.0762 31.504V34.3743H62.5502C63.0737 34.4074 63.5951 34.2831 64.0474 34.0175C64.213 33.8947 64.3452 33.7324 64.432 33.5454C64.5187 33.3584 64.5572 33.1526 64.5439 32.9469C64.5572 32.7397 64.5196 32.5325 64.4344 32.3432C64.3493 32.1538 64.219 31.9883 64.0551 31.8608C63.6159 31.5912 63.103 31.4663 62.5889 31.504H61.0762Z" fill="#231F20"></path><path d="M73.8918 38.9744H73.5582C73.4881 38.979 73.4177 38.9697 73.3512 38.947C73.2846 38.9244 73.2232 38.8889 73.1703 38.8425C73.1176 38.7906 73.0775 38.7271 73.0533 38.6572C73.0291 38.5872 73.0214 38.5126 73.0307 38.4391C73.0211 38.3666 73.0304 38.2928 73.0576 38.2249C73.0847 38.157 73.1289 38.0972 73.1859 38.0512C73.4069 37.9613 73.6466 37.9267 73.8841 37.9504H74.334V31.5658H73.8841C73.646 31.5865 73.4064 31.5492 73.1859 31.4572C73.1303 31.4067 73.0874 31.344 73.0604 31.2739C73.0335 31.2039 73.0233 31.1285 73.0307 31.0538C73.0233 30.9835 73.0313 30.9124 73.054 30.8454C73.0768 30.7784 73.1138 30.7172 73.1626 30.6659C73.2181 30.6194 73.2824 30.5844 73.3517 30.5631C73.421 30.5418 73.4939 30.5345 73.566 30.5418H79.7721C79.8402 30.5366 79.9085 30.5472 79.9717 30.5727C80.035 30.5983 80.0915 30.6382 80.1367 30.6892C80.2295 30.8082 80.2739 30.9578 80.2609 31.1081V32.7915C80.2782 32.9693 80.2402 33.1481 80.1522 33.3035C80.1046 33.3554 80.0452 33.3951 79.9791 33.4194C79.913 33.4437 79.842 33.4519 79.7721 33.4432C79.6974 33.4506 79.6221 33.4404 79.552 33.4135C79.482 33.3865 79.4192 33.3436 79.3687 33.288C79.2761 33.0649 79.2388 32.8227 79.2601 32.5821V31.5658H75.4744V33.9629H77.3362V33.5828C77.3212 33.3977 77.3589 33.2122 77.4448 33.0475C77.4881 32.9962 77.5431 32.9559 77.6053 32.9303C77.6674 32.9046 77.7347 32.8943 77.8017 32.9001C77.868 32.8935 77.9349 32.9052 77.9951 32.9339C78.0553 32.9626 78.1065 33.0073 78.143 33.0631C78.2311 33.2792 78.2656 33.5134 78.2439 33.7457V35.0723C78.2672 35.3047 78.2326 35.5393 78.143 35.755C78.1011 35.808 78.0463 35.8494 77.9838 35.8752C77.9213 35.901 77.8533 35.9103 77.7862 35.9024C77.7177 35.9107 77.6483 35.899 77.5864 35.8687C77.5244 35.8384 77.4725 35.7908 77.4371 35.7317C77.356 35.5218 77.3216 35.2968 77.3362 35.0723V34.824H75.4744V37.9737H79.2368V36.8178C79.2156 36.5771 79.2528 36.3349 79.3455 36.1118C79.3959 36.0563 79.4587 36.0133 79.5287 35.9864C79.5988 35.9594 79.6742 35.9493 79.7489 35.9567C79.8192 35.9508 79.8901 35.961 79.9559 35.9865C80.0218 36.0121 80.081 36.0523 80.129 36.1041C80.2166 36.2737 80.2542 36.4647 80.2376 36.6549V38.4391C80.2477 38.582 80.2034 38.7233 80.1135 38.8348C80.0646 38.8801 80.0072 38.9151 79.9446 38.9378C79.8819 38.9604 79.8154 38.9702 79.7489 38.9666L73.8918 38.9744Z" fill="#231F20"></path><path d="M93.4645 37.7489V36.0578H91.7035C91.6453 36.0621 91.5868 36.0539 91.5319 36.0339C91.4771 36.0138 91.4272 35.9823 91.3855 35.9414C91.3087 35.8451 91.2725 35.7226 91.2846 35.6001C91.2685 35.4687 91.3017 35.336 91.3777 35.2277C91.4271 35.1873 91.4843 35.1576 91.5457 35.1402C91.607 35.1229 91.6713 35.1183 91.7346 35.1269H94.8376C94.8889 35.1228 94.9404 35.1313 94.9877 35.1516C95.035 35.1719 95.0767 35.2033 95.1091 35.2432C95.1797 35.3482 95.2125 35.474 95.2022 35.6001C95.2087 35.665 95.2009 35.7305 95.1794 35.7922C95.158 35.8538 95.1234 35.91 95.0781 35.9569C94.9568 36.0371 94.8115 36.0727 94.667 36.0578H94.5739V38.1989C94.582 38.2894 94.566 38.3804 94.5273 38.4627C94.4874 38.5286 94.4277 38.5802 94.3567 38.6101C93.989 38.8113 93.5906 38.9502 93.1775 39.0212C92.6682 39.1351 92.1478 39.1923 91.6259 39.1919C91.0528 39.2187 90.4804 39.1249 89.9458 38.9164C89.4113 38.7079 88.9265 38.3895 88.5229 37.9817C88.1258 37.5574 87.8171 37.0584 87.6146 36.5137C87.4122 35.9689 87.3201 35.3894 87.3437 34.8088C87.3044 33.6252 87.7178 32.4711 88.4996 31.5816C88.8631 31.167 89.3138 30.838 89.8195 30.618C90.3251 30.398 90.8731 30.2926 91.4242 30.3093C91.7506 30.3075 92.0761 30.344 92.394 30.4179C92.7387 30.4981 93.076 30.6071 93.4024 30.7438C93.4373 30.6362 93.5078 30.5437 93.6023 30.4816C93.6968 30.4196 93.8097 30.3916 93.9222 30.4024C94.0078 30.3906 94.0949 30.4024 94.1742 30.4366C94.2536 30.4708 94.322 30.5261 94.3722 30.5964C94.4667 30.8917 94.5035 31.2025 94.4808 31.5118V32.4815C94.4988 32.654 94.4548 32.8272 94.3567 32.9702C94.3014 33.0228 94.2352 33.0626 94.1628 33.0867C94.0904 33.1109 94.0135 33.1188 93.9377 33.1099C93.6895 33.1099 93.5188 32.9547 93.4024 32.6522C93.3778 32.5834 93.3493 32.5161 93.3171 32.4505C93.1537 32.0882 92.8829 31.7849 92.5413 31.5816C92.2074 31.3711 91.819 31.2632 91.4242 31.2713C91.0315 31.261 90.6418 31.3426 90.2863 31.5096C89.9307 31.6766 89.6191 31.9244 89.3762 32.2332C88.8332 32.9435 88.5584 33.8226 88.6005 34.7157C88.5512 35.6436 88.85 36.5565 89.4383 37.2757C89.7172 37.5897 90.0622 37.8381 90.4485 38.0031C90.8348 38.1681 91.2528 38.2455 91.6725 38.2299C91.9553 38.231 92.2371 38.1945 92.5103 38.1213C92.8396 38.0283 93.1592 37.9036 93.4645 37.7489Z" fill="#231F20"></path><path d="M107.638 37.9741C107.878 37.9525 108.12 37.987 108.344 38.075C108.398 38.1226 108.44 38.1829 108.466 38.2505C108.492 38.3182 108.5 38.3911 108.491 38.4628C108.5 38.5369 108.492 38.6121 108.466 38.6822C108.44 38.7523 108.398 38.8154 108.344 38.8662C108.121 38.9589 107.878 38.9961 107.638 38.9748H102.983C102.913 38.9794 102.843 38.9701 102.776 38.9475C102.71 38.9249 102.648 38.8893 102.595 38.843C102.546 38.7933 102.508 38.7336 102.484 38.668C102.46 38.6025 102.45 38.5325 102.456 38.4628C102.448 38.3904 102.458 38.3171 102.485 38.2494C102.512 38.1817 102.555 38.1218 102.611 38.075C102.835 37.987 103.077 37.9525 103.317 37.9741H104.923V31.5663H103.317C103.079 31.5869 102.839 31.5496 102.619 31.4577C102.56 31.4092 102.515 31.347 102.486 31.2766C102.458 31.2061 102.447 31.1297 102.456 31.0543C102.45 30.9834 102.459 30.9121 102.483 30.8451C102.507 30.7782 102.546 30.7173 102.595 30.6664C102.708 30.5738 102.853 30.5293 102.999 30.5422H107.94C108.01 30.5362 108.08 30.5441 108.147 30.5654C108.213 30.5867 108.275 30.621 108.328 30.6664C108.376 30.7182 108.413 30.7795 108.435 30.8463C108.458 30.9131 108.467 30.984 108.46 31.0543C108.468 31.1289 108.457 31.2043 108.43 31.2744C108.404 31.3444 108.361 31.4072 108.305 31.4577C108.084 31.5496 107.845 31.5869 107.607 31.5663H106.001V37.9741H107.638Z" fill="#231F20"></path><path d="M117.676 38.7264C117.669 38.8871 117.612 39.0416 117.514 39.1686C117.386 39.2564 117.233 39.2995 117.079 39.2911C116.924 39.2827 116.777 39.2232 116.66 39.122C116.552 38.9533 116.495 38.7564 116.497 38.5557L116.404 36.8878V36.7637C116.385 36.59 116.433 36.4156 116.536 36.2749C116.595 36.2232 116.664 36.1841 116.739 36.1601C116.814 36.1361 116.892 36.1276 116.97 36.1353C117.258 36.1353 117.459 36.337 117.583 36.7482C117.621 36.9061 117.676 37.0595 117.746 37.2059C117.91 37.5442 118.184 37.8174 118.522 37.9816C118.924 38.1734 119.365 38.2665 119.81 38.2531C120.341 38.283 120.867 38.1296 121.299 37.8187C121.478 37.6947 121.624 37.5287 121.724 37.3354C121.824 37.142 121.875 36.9271 121.873 36.7094C121.879 36.5428 121.851 36.3768 121.789 36.2219C121.728 36.067 121.635 35.9266 121.516 35.8095C121.229 35.56 120.871 35.4056 120.492 35.3673L119.437 35.2277C118.664 35.1681 117.922 34.9 117.289 34.4519C117.062 34.2543 116.884 34.0077 116.767 33.7308C116.65 33.4539 116.597 33.1539 116.614 32.8538C116.615 32.5003 116.696 32.1518 116.852 31.8345C117.008 31.5173 117.234 31.2398 117.514 31.023C118.145 30.5065 118.94 30.2315 119.755 30.2472C120.035 30.2481 120.314 30.282 120.586 30.3481C120.919 30.4331 121.245 30.542 121.563 30.6739C121.56 30.6204 121.569 30.567 121.589 30.5174C121.609 30.4678 121.64 30.4232 121.679 30.3869C121.781 30.3235 121.901 30.2962 122.021 30.3093C122.172 30.2973 122.323 30.3297 122.455 30.4024C122.559 30.5254 122.612 30.6837 122.603 30.8446L122.703 32.3263V32.4039C122.708 32.4735 122.698 32.5433 122.674 32.6088C122.65 32.6743 122.612 32.734 122.564 32.784C122.453 32.8814 122.308 32.9315 122.16 32.9236C121.912 32.9236 121.718 32.753 121.579 32.4039C121.531 32.2459 121.463 32.0947 121.377 31.9539C121.211 31.7075 120.977 31.5158 120.702 31.4031C120.385 31.272 120.044 31.2061 119.701 31.2092C119.201 31.1885 118.708 31.339 118.305 31.6358C118.134 31.7667 117.996 31.9361 117.903 32.1302C117.81 32.3243 117.764 32.5377 117.77 32.7529C117.762 32.9173 117.795 33.081 117.865 33.2297C117.936 33.3785 118.041 33.5077 118.173 33.6063C118.536 33.8547 118.959 34.002 119.399 34.033L120.531 34.1804C121.219 34.2329 121.872 34.5048 122.393 34.9561C122.605 35.1642 122.771 35.4149 122.88 35.6917C122.988 35.9685 123.036 36.2651 123.021 36.562C123.035 36.9291 122.961 37.2941 122.805 37.6272C122.65 37.9602 122.419 38.2518 122.129 38.4781C121.447 38.9887 120.607 39.244 119.755 39.1996C119.413 39.2004 119.072 39.1587 118.739 39.0755C118.375 38.993 118.019 38.8762 117.676 38.7264Z" fill="#231F20"></path><path d="M131.369 33.4124C131.383 33.6475 131.338 33.8823 131.237 34.0951C131.181 34.1488 131.113 34.1892 131.039 34.2134C130.965 34.2375 130.887 34.2449 130.81 34.2348C130.743 34.24 130.675 34.2317 130.611 34.2104C130.547 34.1891 130.488 34.1552 130.438 34.1106C130.348 34.0023 130.303 33.8633 130.314 33.7228C130.314 33.5754 130.314 33.459 130.314 33.3892L130.383 31.0619C130.38 30.9924 130.391 30.9229 130.415 30.8576C130.439 30.7923 130.475 30.7325 130.523 30.6817C130.636 30.5953 130.777 30.5538 130.919 30.5654H137.125C137.267 30.5538 137.408 30.5953 137.52 30.6817C137.568 30.7325 137.605 30.7923 137.629 30.8576C137.653 30.9229 137.663 30.9924 137.66 31.0619L137.738 33.3892C137.738 33.4745 137.738 33.5521 137.738 33.6297C137.733 33.6631 137.733 33.697 137.738 33.7305C137.744 33.8003 137.735 33.8705 137.711 33.9363C137.686 34.002 137.648 34.0616 137.598 34.1106C137.485 34.2032 137.34 34.2477 137.195 34.2348C137.124 34.2428 137.052 34.2344 136.984 34.2102C136.917 34.186 136.856 34.1466 136.807 34.0951C136.706 33.8825 136.663 33.647 136.683 33.4124L136.644 31.5661H134.604V37.974H135.977C136.13 37.9619 136.284 38.003 136.411 38.0903C136.458 38.1395 136.494 38.1982 136.517 38.2623C136.54 38.3265 136.549 38.3948 136.543 38.4627C136.549 38.5317 136.54 38.6012 136.517 38.6667C136.495 38.7322 136.458 38.7922 136.411 38.8428C136.363 38.8893 136.306 38.9251 136.243 38.9478C136.18 38.9705 136.113 38.9797 136.046 38.9747H132.059C131.991 38.9789 131.923 38.9694 131.859 38.9467C131.795 38.9241 131.737 38.8887 131.687 38.8428C131.642 38.7908 131.608 38.7304 131.587 38.6652C131.565 38.5999 131.557 38.5311 131.563 38.4627C131.555 38.3935 131.562 38.3234 131.585 38.2576C131.608 38.1919 131.645 38.132 131.694 38.0826C131.837 37.9991 132.002 37.9612 132.168 37.974H133.502V31.5661H131.462L131.369 33.4124Z" fill="#231F20"></path><path d="M146.729 37.9736H147.21C147.41 37.9579 147.611 37.9954 147.792 38.0822C147.851 38.1251 147.898 38.1828 147.927 38.2495C147.957 38.3162 147.969 38.3896 147.962 38.4623C147.971 38.5352 147.963 38.6093 147.937 38.6781C147.911 38.747 147.869 38.8087 147.815 38.8579C147.645 38.9523 147.45 38.9929 147.256 38.9743H144.867C144.799 38.9785 144.731 38.969 144.667 38.9463C144.603 38.9237 144.545 38.8883 144.495 38.8424C144.402 38.7381 144.355 38.6015 144.363 38.4623C144.357 38.3919 144.367 38.3211 144.393 38.2552C144.418 38.1894 144.458 38.1302 144.51 38.0822C144.65 37.9979 144.813 37.9599 144.976 37.9736H145.627V31.5037H145.177C144.942 31.5229 144.706 31.4884 144.487 31.4028C144.428 31.3595 144.383 31.3015 144.354 31.2347C144.325 31.168 144.315 31.0948 144.324 31.0227C144.317 30.8897 144.361 30.7592 144.448 30.6581C144.555 30.5726 144.691 30.5311 144.828 30.5417H147.823C148.368 30.5276 148.913 30.5613 149.452 30.6426C149.776 30.6978 150.085 30.8193 150.359 30.9994C150.69 31.2051 150.959 31.4976 151.135 31.845C151.317 32.2048 151.403 32.6058 151.383 33.0087C151.395 33.523 151.215 34.0232 150.879 34.4128C150.508 34.8133 150.019 35.085 149.483 35.1886C149.603 35.258 149.715 35.3413 149.816 35.4368C149.917 35.5442 150.01 35.6583 150.096 35.7781L151.523 37.9736H151.756C151.946 37.9542 152.138 37.992 152.307 38.0822C152.36 38.1286 152.402 38.1876 152.428 38.2539C152.453 38.3201 152.462 38.3917 152.454 38.4623C152.459 38.5307 152.451 38.5995 152.43 38.6648C152.409 38.73 152.375 38.7904 152.33 38.8424C152.281 38.8881 152.224 38.9234 152.161 38.9461C152.098 38.9688 152.032 38.9784 151.965 38.9743H151.189C150.957 38.9743 150.732 38.8036 150.507 38.4623L150.445 38.3925L149.056 36.3212C148.869 36.027 148.636 35.765 148.366 35.5454C148.149 35.4132 147.898 35.3484 147.644 35.3592H146.729V37.9736ZM146.729 31.5037V34.374H148.203C148.724 34.4069 149.243 34.2826 149.692 34.0172C149.86 33.8963 149.995 33.7345 150.083 33.5472C150.171 33.3599 150.21 33.1532 150.196 32.9466C150.21 32.7394 150.172 32.5321 150.087 32.3428C150.002 32.1535 149.872 31.9879 149.708 31.8605C149.268 31.5908 148.756 31.466 148.241 31.5037H146.729Z" fill="#231F20"></path><path d="M161.468 31.5658H160.429C160.22 31.5829 160.011 31.5427 159.824 31.4495C159.763 31.4044 159.714 31.3443 159.683 31.275C159.651 31.2057 159.639 31.1295 159.645 31.0538C159.638 30.9791 159.648 30.9038 159.675 30.8337C159.702 30.7637 159.745 30.7009 159.801 30.6504C160.068 30.5518 160.354 30.5147 160.638 30.5418H162.663C162.845 30.5238 163.028 30.5588 163.191 30.6427C163.308 30.7449 163.396 30.876 163.447 31.0228L166.224 38.0047H166.348C166.527 37.9864 166.708 38.0215 166.868 38.1055C166.922 38.1536 166.963 38.214 166.989 38.2815C167.014 38.349 167.024 38.4217 167.015 38.4934C167.023 38.5668 167.015 38.6411 166.991 38.7109C166.967 38.7807 166.927 38.8442 166.876 38.8968C166.723 38.9847 166.547 39.0226 166.371 39.0054H164.44C164.204 39.0273 163.967 38.99 163.749 38.8968C163.692 38.8476 163.648 38.785 163.621 38.7146C163.594 38.6442 163.585 38.5683 163.594 38.4934C163.586 38.4214 163.597 38.3485 163.625 38.2819C163.654 38.2152 163.699 38.1572 163.757 38.1133C163.956 38.0217 164.175 37.9842 164.393 38.0047H165.052L164.362 36.3135H160.747L160.134 38.0047H160.825C161.045 37.9835 161.267 38.021 161.468 38.1133C161.527 38.1568 161.573 38.2146 161.603 38.2811C161.633 38.3477 161.645 38.4208 161.639 38.4934C161.646 38.5681 161.636 38.6435 161.609 38.7135C161.582 38.7836 161.539 38.8464 161.484 38.8968C161.274 38.989 161.045 39.0264 160.817 39.0054H158.939C158.732 39.0241 158.523 38.9866 158.334 38.8968C158.281 38.8449 158.24 38.7817 158.215 38.7119C158.189 38.6421 158.18 38.5674 158.187 38.4934C158.18 38.4218 158.19 38.3497 158.216 38.2825C158.241 38.2153 158.282 38.1548 158.334 38.1055C158.516 38.0207 158.717 37.9859 158.916 38.0047H159.048L161.468 31.5658ZM161.104 35.3361H164.013L162.461 31.5658L161.104 35.3361Z" fill="#231F20"></path><path d="M175.145 38.9746H173.702C173.631 38.9797 173.559 38.9707 173.491 38.9481C173.423 38.9255 173.36 38.8896 173.306 38.8427C173.258 38.7926 173.222 38.7327 173.199 38.6671C173.176 38.6014 173.168 38.5317 173.175 38.4625C173.166 38.3901 173.175 38.3165 173.202 38.2487C173.23 38.1809 173.273 38.1211 173.33 38.0747C173.509 37.9905 173.707 37.9557 173.904 37.9738H174.036V31.566H173.919C173.716 31.5843 173.511 31.5439 173.33 31.4496C173.275 31.4003 173.232 31.3389 173.205 31.2702C173.178 31.2015 173.168 31.1274 173.175 31.054C173.167 30.9836 173.175 30.9125 173.198 30.8455C173.221 30.7786 173.258 30.7173 173.306 30.6661C173.42 30.5735 173.564 30.529 173.71 30.542H176.712C177.237 30.5178 177.761 30.6071 178.248 30.8039C178.736 31.0007 179.175 31.3004 179.536 31.6823C180.278 32.5397 180.657 33.6531 180.591 34.7854C180.597 35.3858 180.494 35.9824 180.288 36.5464C180.091 37.0722 179.794 37.5544 179.412 37.9661C179.048 38.3285 178.6 38.595 178.108 38.7418C177.472 38.9306 176.809 39.017 176.146 38.9978H175.665L175.145 38.9746ZM175.145 37.9738H175.595H176.029C176.954 38.059 177.875 37.7807 178.597 37.198C179.128 36.4865 179.415 35.6226 179.415 34.735C179.415 33.8473 179.128 32.9834 178.597 32.2719C177.857 31.6885 176.921 31.4109 175.983 31.4962H175.432H175.114L175.145 37.9738Z" fill="#231F20"></path><path d="M190.009 31.5659H188.977C188.766 31.5836 188.554 31.5434 188.364 31.4496C188.304 31.4041 188.256 31.3438 188.226 31.2744C188.196 31.205 188.185 31.129 188.194 31.0539C188.185 30.9798 188.193 30.9046 188.219 30.8345C188.244 30.7644 188.286 30.7014 188.341 30.6505C188.609 30.5527 188.895 30.5156 189.179 30.5419H191.203C191.387 30.5381 191.567 30.5865 191.723 30.6815C191.837 30.7847 191.923 30.9157 191.972 31.0617L194.757 38.0436H194.873C195.055 38.0256 195.238 38.0606 195.4 38.1444C195.451 38.1944 195.49 38.2552 195.515 38.3224C195.539 38.3895 195.548 38.4613 195.54 38.5323C195.548 38.6051 195.54 38.6786 195.517 38.7481C195.494 38.8176 195.457 38.8815 195.408 38.9357C195.255 39.0226 195.079 39.0605 194.904 39.0443H192.964C192.729 39.0662 192.492 39.0289 192.274 38.9357C192.219 38.8852 192.176 38.8225 192.149 38.7524C192.122 38.6824 192.112 38.607 192.119 38.5323C192.112 38.4597 192.125 38.3866 192.155 38.32C192.185 38.2535 192.231 38.1957 192.29 38.1522C192.485 38.0593 192.703 38.0218 192.918 38.0436H193.577L192.887 36.3524H189.28L188.667 38.0436H189.396C189.614 38.0219 189.834 38.0594 190.032 38.1522C190.073 38.1883 190.107 38.2323 190.131 38.2816C190.155 38.3309 190.169 38.3845 190.172 38.4392C190.181 38.5133 190.172 38.5885 190.146 38.6586C190.121 38.7287 190.079 38.7918 190.024 38.8426C189.812 38.9355 189.58 38.9728 189.349 38.9512H187.48C187.272 38.9699 187.063 38.9324 186.875 38.8426C186.82 38.7918 186.778 38.7287 186.753 38.6586C186.727 38.5885 186.718 38.5133 186.727 38.4392C186.719 38.3675 186.728 38.2948 186.754 38.2273C186.779 38.1598 186.821 38.0994 186.875 38.0513C187.054 37.9672 187.252 37.9323 187.449 37.9505H187.588L190.009 31.5659ZM189.652 35.3362H192.561L191.01 31.5659L189.652 35.3362Z" fill="#231F20"></path></svg>